<svg width="128" height="32" viewBox="0 0 128 32" fill="none" xmlns="http://www.w3.org/2000/svg">
<path d="M47.0412 31.9988V23.503H48.5798V31.9988H47.0412Z" fill="black"/>
<path d="M53.7226 24.857V31.9988H52.1839V24.857H50.324V23.5018H55.5714V24.857H53.7226Z" fill="black"/>
<path d="M62.3906 31.9988L61.5979 30.0933H58.2228L57.419 31.9988H55.7659L59.7614 23.3184H60.1061L64.0561 31.9988H62.3906ZM59.9214 26.1089L58.6474 28.8993H61.1733L59.9214 26.1089Z" fill="black"/>
<path d="M65.7646 23.503H67.3032V30.6448H70.2315V32H65.7646V23.503Z" fill="black"/>
<path d="M71.9413 31.9988V23.503H73.4799V31.9988H71.9413Z" fill="black"/>
<path d="M81.7467 31.9988L80.954 30.0933H77.5789L76.7751 31.9988H75.122L79.1175 23.3184H79.4622L83.4122 31.9988H81.7467ZM79.2775 26.1089L78.0035 28.8993H80.5294L79.2775 26.1089Z" fill="black"/>
<path d="M100.742 12.1651L100.737 12.2833C100.652 14.1567 99.995 15.6597 98.7838 16.7502C96.642 18.6791 93.4872 18.5166 92.6723 18.5068C92.6637 18.5068 92.5308 18.5068 92.5234 18.5068V9.77836C92.5628 9.77836 92.7253 9.77836 92.7659 9.77713C94.2947 9.76729 96.0746 9.62942 96.3712 13.4465L96.3798 13.5597H96.674V5.60804H96.3835L96.3712 5.71759C95.9798 9.33893 94.1507 9.32416 92.66 9.32785C92.6551 9.32785 92.5271 9.32785 92.5234 9.32785V1.00566C92.7203 1.00443 93.0428 1.00196 93.241 0.998272C96.0524 0.95519 98.838 0.665926 100.023 6.64693L100.043 6.74663H100.342V0.541604H84.1815V0.96873H85.6118V14.0632C85.5774 15.944 84.8413 17.0986 84.195 17.7104C83.4146 18.4501 82.3216 18.8379 81.3332 18.8034C77.6872 18.6717 77.585 15.0048 77.5826 14.846V0.96873H79.2431V0.541604H72.7845V0.96873H74.4979L74.493 13.3123C74.493 16.6875 76.2077 19.2908 81.215 19.2908C84.5729 19.2908 86.114 16.5016 86.0796 14.1887V0.96873H87.6022V0.971192H89.408V18.5006H87.7782V18.9413H101.079V12.1651H100.742Z" fill="black"/>
<path d="M67.1038 11.0671V11.4955H68.5908V15.3322C68.5883 18.1978 66.6878 18.8354 65.1972 18.8649C63.5884 18.8908 62.5101 18.103 61.8995 16.4671C61.2976 14.8719 60.9801 13.332 60.9801 9.74636C60.9801 8.4699 61.177 4.28357 62.1199 2.45198C62.4781 1.76143 63.1452 0.477594 65.1344 0.477594C65.1405 0.477594 65.1467 0.477594 65.1528 0.477594C67.5777 0.487441 68.9711 2.1664 70.1011 6.66785L70.1245 6.7614H70.399V0H70.1343L70.1023 0.0763165C69.8438 0.695465 69.2272 0.830865 68.6954 0.818556C68.4418 0.808709 68.2104 0.771782 68.0406 0.737316C67.8904 0.704081 67.7944 0.673309 67.7895 0.672078C67.5556 0.598223 67.3488 0.528061 67.1592 0.465285C67.0731 0.435743 66.9894 0.411124 66.9057 0.387737C66.2939 0.184637 65.8372 0.055391 65.1295 0.055391C61.9414 0.055391 57.5544 3.29515 57.5544 9.979C57.5544 15.4381 60.8336 19.2933 65.3092 19.2933C66.1425 19.2933 66.8306 19.02 67.478 18.7197C67.5987 18.6705 67.7181 18.62 67.8325 18.5658C68.4652 18.2655 69.0647 17.9812 69.7392 17.9455C69.7663 17.9442 69.7934 17.9442 69.8205 17.943C69.8389 17.943 69.8574 17.9418 69.8771 17.9418C70.2673 17.9418 71.0501 18.1941 71.2015 18.945L71.2212 19.0434L71.4834 19.0447V11.4979H72.8916V11.0696H67.1038V11.0671Z" fill="black"/>
<path d="M48.0641 0.0947826C44.2827 0.0947826 40.1395 3.87368 40.1395 9.64296C40.1395 15.4122 44.4194 19.2416 48.0641 19.2416C51.7101 19.2416 55.9887 15.4122 55.9887 9.64296C55.9899 3.87368 51.8455 0.0947826 48.0641 0.0947826ZM52.4831 8.93396C52.4843 8.97581 52.4855 9.01766 52.4855 9.05828C52.4868 9.08905 52.4868 9.1186 52.4868 9.14937C52.4868 9.17276 52.488 9.19737 52.488 9.22076C52.488 9.25892 52.4892 9.29585 52.4892 9.33154C52.4892 9.34508 52.4892 9.35985 52.4892 9.37339C52.4892 9.41278 52.4905 9.44971 52.4905 9.48664C52.4905 9.49649 52.4905 9.50633 52.4905 9.51618C52.4905 9.56049 52.4905 9.60234 52.4905 9.64296C52.4905 9.67497 52.4905 9.70943 52.4905 9.74513C52.4855 10.8123 52.3957 14.9383 51.3149 16.9952C50.7056 18.1867 49.5006 18.8169 48.0641 18.8169C46.6276 18.8169 45.4226 18.1867 44.812 16.994C43.7313 14.9383 43.6414 10.8111 43.6365 9.74513C43.6365 9.70943 43.6365 9.67497 43.6365 9.64296C43.6365 9.60357 43.6365 9.56172 43.6365 9.51618C43.6365 9.50633 43.6365 9.49649 43.6365 9.48664C43.6365 9.44971 43.6365 9.41278 43.6377 9.37339C43.6377 9.35985 43.6377 9.34508 43.6377 9.33154C43.6377 9.29585 43.639 9.25892 43.639 9.22076C43.639 9.19737 43.6402 9.17276 43.6402 9.14937C43.6402 9.11983 43.6414 9.08905 43.6414 9.05828C43.6427 9.01766 43.6427 8.97581 43.6439 8.93396C43.6439 8.91919 43.6451 8.90442 43.6451 8.88965C43.687 7.24515 43.8925 4.15556 44.812 2.33997C45.558 0.835791 47.0486 0.520678 48.0653 0.520678C49.0808 0.520678 50.5715 0.837022 51.3162 2.34243C52.2357 4.15679 52.44 7.24638 52.4818 8.89088C52.4818 8.90442 52.4831 8.91919 52.4831 8.93396Z" fill="black"/>
<path d="M38.1023 0.544061V0.966263H39.6077L35.5925 14.4017L30.7439 0.966263H32.1201V0.720081H32.1213V0.544061H26V0.966263H27.7725L34.5647 19.041H34.6619L40.0718 0.966263H41.7298V0.544061H38.1023Z" fill="black"/>
</svg>